<svg version="1" xmlns="http://www.w3.org/2000/svg" width="933.333" height="933.333" viewBox="0 0 700.000000 700.000000"><path d="M158.3 45.5c-26.3 4-53.8 14.5-74.4 28.6-14.4 9.7-34.6 28.8-45 42.4-26.8 35-40.4 77.6-38.6 121 1.6 39.4 13.9 74.5 36.9 105.7l5 6.8h140.3l25-60.3c17.2-41.5 25.9-61.3 28-63.6 6.4-7.3 17.7-9.3 26.5-4.5 2.6 1.4 5.7 3.8 6.8 5.3 1.5 2 41.8 90.8 80.5 177.1l2 4.4 34.3-68.5c35.7-71.5 36.6-73.1 44.3-76.1 7.9-3 19.6 0 24.4 6.4 1.4 1.8 11.1 20.5 21.6 41.6L495 350l81.6-.2 81.7-.3 6.9-9.5c8.6-11.9 20.7-35.8 25.2-49.9 19.9-61.6 8-127.5-32.2-177.2-8.6-10.7-27.1-28.2-38.3-36.2-11.2-8-33.7-19.5-46.8-23.8-17.3-5.7-30.9-8-50.3-8.6-20.3-.6-31.6.4-49.3 4.7-24.9 6.1-48 17.3-68.3 33.2-4.2 3.3-18.4 16.9-31.4 30.2L350 136.5 325.8 112c-15.4-15.5-28-27.3-34.4-32.1-21.7-16.3-44.8-26.8-71.9-32.5-15.2-3.2-46.3-4.2-61.2-1.9z"/><path d="M234.5 338.7c-9.8 23.5-19 45.6-20.6 49l-2.8 6.3-63.7.2-63.8.3 125.2 128c96.5 98.7 126.4 128.6 130.3 130.8 7.1 3.8 14.7 3.8 21.7-.1 3.9-2 35.4-33.7 130.3-130.7l125.3-128-74.2-.3-74.2-.2-15.1-30.2-15.1-30.3-34.7 69.2c-19 38-35.7 70.4-37.1 71.9-6.4 6.9-17.9 8.4-26.6 3.5-2.8-1.6-5.8-4-6.6-5.3-.8-1.3-19-41-40.3-88.3-21.3-47.3-39-86.6-39.4-87.3-.4-.7-8.1 16.5-18.6 41.5z"/></svg>